Coordinates
version=1
nRows=4
nColumns=107
inDegrees=yes

Units are S.I. units (second, meters, Newtons, ...)
If the header above contains a line with 'inDegrees', this indicates whether rotational values are in degrees (yes) or radians (no).

endheader
time	sternoclavicular_r2	sternoclavicular_r3	unrotscap_r3	unrotscap_r2	acromioclavicular_r2	acromioclavicular_r3	acromioclavicular_r1	unrothum_r1	unrothum_r3	unrothum_r2	elv_angle	shoulder_elv	shoulder1_r2	shoulder_rot	elbow_flexion	pro_sup	deviation	flexion	proximal_distal_r1	proximal_distal_r3	cmc_flexion	cmc_abduction	mp_flexion	ip_flexion	mcp2_flexion	mcp2_abduction	pm2_flexion	md2_flexion	mcp3_flexion	mcp3_abduction	pm3_flexion	md3_flexion	mcp4_flexion	mcp4_abduction	pm4_flexion	md4_flexion	mcp5_flexion	mcp5_abduction	pm5_flexion	md5_flexion	bicpt_tx	bicpt_ty	bicpt_tz	bicpt2_tx	bicpt2_ty	bicpt2_tz	ptpt_tx	ptpt_ty	ptpt_tz	FCUpt_tx	FCUpt_ty	FCUpt_tz	EDCpt_tx	EDCpt_ty	EDCpt_tz	APLpt_tx	APLpt_ty	APLpt_tz	FPLpt_tx	FPLpt_ty	FPLpt_tz	FPLpt2_tx	FPLpt2_ty	FPLpt2_tz	PEC1pt2_tx	PEC1pt2_ty	PEC1pt2_tz	PEC1pt3_tx	PEC1pt3_ty	PEC1pt3_tz	PEC2pt2_tx	PEC2pt2_ty	PEC2pt2_tz	PEC2pt3_tx	PEC2pt3_ty	PEC2pt3_tz	PEC3pt2_tx	PEC3pt2_ty	PEC3pt2_tz	PEC3pt3_tx	PEC3pt3_ty	PEC3pt3_tz	DELT2pt2a_tx	DELT2pt2a_ty	DELT2pt2a_tz	DELT2pt2_tx	DELT2pt2_ty	DELT2pt2_tz	LAT1pt2_tx	LAT1pt2_ty	LAT1pt2_tz	LAT1pt3_tx	LAT1pt3_ty	LAT1pt3_tz	LAT2pt2_tx	LAT2pt2_ty	LAT2pt2_tz	LAT2pt3_tx	LAT2pt3_ty	LAT2pt3_tz	LAT3pt2_tx	LAT3pt2_ty	LAT3pt2_tz	LAT3pt3_tx	LAT3pt3_ty	LAT3pt3_tz
      0.90000000	     -0.32494415	      0.13763101	     -0.13763101	      0.32494415	     -0.06579458	      0.53172866	      0.23900837	     -0.23900837	     -0.53172866	      0.06579458	     98.52952350	     76.93341677	     -1.71966460	    -20.02014112	     29.46663173	     39.88621815	      0.16269318	     -0.54771629	      0.19913243	     -0.27385815	     17.97112191	    -17.60517564	    -21.70183331	    -37.58272104	      8.87665931	      7.51627471	     49.74020151	     15.30981237	     12.68896701	      0.64270774	     33.38147193	     23.11310267	     12.78861499	     -5.66481943	     25.90629049	     26.04954374	     12.28429554	    -13.20143694	     18.65993658	      5.22991266	      0.00087466	     -0.03097733	     -0.00484400	      0.01657418	     -0.01820476	     -0.00748217	      0.00460286	     -0.06680567	     -0.00326305	      0.00776878	     -0.18349743	     -0.00038561	     -0.00478633	      0.00137562	      0.00014723	      0.00030916	      0.00012366	      0.00061832	      0.00039573	      0.00118718	      0.00066779	      0.00001681	     -0.00026986	     -0.00032383	      0.00252171	      0.00884735	      0.00615468	     -0.00824898	      0.01991722	     -0.01889144	      0.00252171	      0.00884735	      0.00615468	      0.00055563	      0.01846404	     -0.00970217	      0.00397685	      0.00491990	      0.01603787	      0.00000000	      0.00791665	      0.00000000	     -0.00722320	     -0.03338058	     -0.00652839	      0.01378787	     -0.00043256	     -0.00330518	     -0.00089756	      0.01504477	     -0.00615468	      0.00247897	      0.02171234	     -0.01795115	     -0.00602646	      0.01303595	     -0.00551357	     -0.01256580	      0.02752509	     -0.03081613	     -0.02359293	      0.01457462	     -0.00739416	     -0.01564314	      0.03179917	     -0.03850948
      0.93333333	     -0.32586246	      0.13801996	     -0.13801996	      0.32586246	     -0.06598052	      0.53323135	      0.23968382	     -0.23968382	     -0.53323135	      0.06598052	     98.26724829	     77.15083337	     -1.71508703	    -19.13996508	     29.65120690	     39.59755871	      0.16762971	     -0.51521673	      0.20449764	     -0.25760837	     18.02107504	    -18.48032969	    -20.37771371	    -36.90386991	      7.96364093	      7.26284179	     48.65179348	     15.17486745	     11.64064490	      0.36612929	     32.43960190	     25.12723618	     12.40683817	     -5.85290220	     25.15171093	     28.83620820	     11.38848922	    -13.13513166	     18.70248069	      5.25131213	      0.00088077	     -0.03099848	     -0.00484741	      0.01657348	     -0.01825490	     -0.00751288	      0.00462419	     -0.06679188	     -0.00323980	      0.00773974	     -0.18350341	     -0.00038351	     -0.00475170	      0.00136390	      0.00014927	      0.00030485	      0.00012194	      0.00060970	      0.00039021	      0.00117063	      0.00065848	      0.00001669	     -0.00027011	     -0.00032413	      0.00252884	      0.00887235	      0.00617207	     -0.00827229	      0.01997351	     -0.01894483	      0.00252884	      0.00887235	      0.00617207	      0.00055720	      0.01851622	     -0.00972959	      0.00398501	      0.00493380	      0.01605754	      0.00000000	      0.00796178	      0.00000000	     -0.00724361	     -0.03347492	     -0.00656585	      0.01327504	     -0.00040567	     -0.00300549	     -0.00090009	      0.01508729	     -0.00617207	      0.00248597	      0.02177370	     -0.01800188	     -0.00604349	      0.01307279	     -0.00552915	     -0.01260131	      0.02760288	     -0.03090322	     -0.02365961	      0.01461581	     -0.00741506	     -0.01568735	      0.03188904	     -0.03861831
      0.96666667	     -0.32582738	      0.13800510	     -0.13800510	      0.32582738	     -0.06597342	      0.53317395	      0.23965802	     -0.23965802	     -0.53317395	      0.06597342	     98.27924201	     77.14252826	     -1.71529636	    -19.13650153	     29.65086588	     39.59546287	      0.16759608	     -0.51518230	      0.20446087	     -0.25759115	     18.02446640	    -18.48044977	    -20.37601281	    -36.90352090	      7.96558577	      7.26360370	     48.65107268	     15.17425925	     11.64198256	      0.36580930	     32.43912008	     25.12665425	     12.40639304	     -5.85367331	     25.15103412	     28.83557720	     11.38808769	    -13.13521336	     18.70207498	      5.25118242	      0.00088076	     -0.03099844	     -0.00484740	      0.01657346	     -0.01825480	     -0.00751310	      0.00462434	     -0.06679178	     -0.00323963	      0.00773953	     -0.18350346	     -0.00038349	     -0.00475144	      0.00136381	      0.00014928	      0.00030483	      0.00012193	      0.00060967	      0.00039019	      0.00117056	      0.00065844	      0.00001668	     -0.00027012	     -0.00032415	      0.00252856	      0.00887140	      0.00617141	     -0.00827140	      0.01997136	     -0.01894279	      0.00252856	      0.00887140	      0.00617141	      0.00055714	      0.01851422	     -0.00972854	      0.00398469	      0.00493327	      0.01605679	      0.00000000	      0.00796005	      0.00000000	     -0.00724283	     -0.03347131	     -0.00656442	      0.01327298	     -0.00040557	     -0.00300436	     -0.00090000	      0.01508566	     -0.00617141	      0.00248571	      0.02177135	     -0.01799994	     -0.00604284	      0.01307138	     -0.00552855	     -0.01259996	      0.02759991	     -0.03089989	     -0.02365706	      0.01461424	     -0.00741426	     -0.01568566	      0.03188561	     -0.03861415
      1.00000000	     -0.32648101	      0.13828195	     -0.13828195	      0.32648101	     -0.06610576	      0.53424352	      0.24013879	     -0.24013879	     -0.53424352	      0.06610576	     98.27819279	     77.29728038	     -1.71527805	    -18.29190296	     29.31820682	     37.93941690	      0.16865177	     -0.53852037	      0.20560305	     -0.26926019	     19.55960503	    -18.93949998	    -20.26414079	    -37.94200173	     10.57578017	      7.65364168	     44.99249644	     13.21275434	     13.83980541	      0.51839959	     29.45012614	     21.46685135	     12.57109169	     -5.95574194	     24.01416548	     24.86633231	     11.62146662	    -13.07389657	     18.46996420	      5.19138821	      0.00086976	     -0.03096031	     -0.00484126	      0.01656570	     -0.01816443	     -0.00768702	      0.00474671	     -0.06671266	     -0.00310622	      0.00757344	     -0.18353733	     -0.00037019	     -0.00455272	      0.00129708	      0.00016006	      0.00030812	      0.00012325	      0.00061623	      0.00039439	      0.00118317	      0.00066553	      0.00001291	     -0.00027645	     -0.00033174	      0.00253364	      0.00888919	      0.00618379	     -0.00828799	      0.02001142	     -0.01898079	      0.00253364	      0.00888919	      0.00618379	      0.00055826	      0.01855136	     -0.00974805	      0.00399049	      0.00494317	      0.01607072	      0.00000000	      0.00799226	      0.00000000	     -0.00725736	     -0.03353846	     -0.00659115	      0.01277108	     -0.00038006	     -0.00272858	     -0.00090180	      0.01511593	     -0.00618379	      0.00249069	      0.02181503	     -0.01803605	     -0.00605496	      0.01309761	     -0.00553964	     -0.01262523	      0.02765527	     -0.03096188	     -0.02370452	      0.01464355	     -0.00742913	     -0.01571713	      0.03194957	     -0.03869162
